<?xml version="1.0" encoding="UTF-8"?>
<svg version="1.1" xmlns="http://www.w3.org/2000/svg" width="1024" height="1024">
<path d="M0 0 C337.92 0 675.84 0 1024 0 C1024 337.92 1024 675.84 1024 1024 C686.08 1024 348.16 1024 0 1024 C0 686.08 0 348.16 0 0 Z " fill="#F8FEFB" transform="translate(0,0)"/>
<path d="M0 0 C1.39063156 -0.00564972 1.39063156 -0.00564972 2.80935669 -0.01141357 C20.7545025 -0.04835613 38.2849684 1.38087819 55.9375 4.6875 C57.7309082 5.01729858 57.7309082 5.01729858 59.56054688 5.35375977 C78.24389008 8.84234557 97.89360699 12.63232825 115.05078125 21.06640625 C118.20109392 22.52074741 121.4089596 23.61339327 124.6875 24.75 C156.62853343 36.33853018 187.61260683 55.70551704 213.13330078 77.92236328 C214.70446641 79.27334744 216.29763536 80.59147617 217.90234375 81.90234375 C225.68847692 88.31755505 232.91438614 95.26316718 240.0625 102.375 C240.981521 103.28483643 241.90054199 104.19467285 242.84741211 105.13208008 C248.90669999 111.2187286 254.41485397 117.58662228 259.75 124.3125 C260.67919871 125.44678194 261.60987589 126.57985683 262.54296875 127.7109375 C292.88462162 165.4276414 313.86082773 210.97416717 323.75 258.3125 C323.90710449 259.04791016 324.06420898 259.78332031 324.22607422 260.54101562 C324.76372966 263.06723895 325.2896861 265.59566572 325.8125 268.125 C326.05637451 269.27947632 326.05637451 269.27947632 326.30517578 270.45727539 C329.35177879 285.53067694 330.09685501 300.22233377 330.06567383 315.56347656 C330.06253209 318.77964817 330.08599515 321.99487996 330.11132812 325.2109375 C330.22163674 361.57734127 323.55854068 400.22622002 310.75 434.3125 C310.44835937 435.11880859 310.14671875 435.92511719 309.8359375 436.75585938 C305.46956984 448.30188443 300.54086999 459.41470124 294.75 470.3125 C294.34410645 471.08561523 293.93821289 471.85873047 293.52001953 472.65527344 C286.98326299 485.05961159 279.78136509 496.82156001 271.75 508.3125 C271.0178125 509.36179687 270.285625 510.41109375 269.53125 511.4921875 C264.88459243 518.00119592 259.88356586 524.18348306 254.75 530.3125 C253.925 531.32441406 253.1 532.33632813 252.25 533.37890625 C245.95093079 541.01163967 239.16356267 548.10827854 232.1875 555.125 C231.32543945 555.99624512 230.46337891 556.86749023 229.57519531 557.76513672 C223.60807584 563.70401348 217.32151533 569.05866641 210.75 574.3125 C208.9556599 575.80930094 207.16367737 577.30893666 205.375 578.8125 C199.96600444 583.22831841 194.33038322 587.2454709 188.52636719 591.11914062 C186.7267525 592.32811762 184.94583506 593.56179354 183.1640625 594.796875 C169.75174222 603.93377186 155.26644204 611.12541749 140.75 618.3125 C139.8331543 618.76931152 138.91630859 619.22612305 137.97167969 619.69677734 C109.66432142 633.63862512 78.41653625 641.81709345 47.22558594 645.96386719 C45.42688128 646.21717589 43.63354022 646.50952231 41.84472656 646.82519531 C29.84802961 648.76103377 17.85929649 648.61465012 5.73632812 648.57324219 C2.02196778 648.56256316 -1.69190472 648.5731633 -5.40625 648.5859375 C-23.2078964 648.59745681 -40.4510968 647.57665774 -57.9375 644.125 C-59.57730835 643.80245239 -59.57730835 643.80245239 -61.25024414 643.47338867 C-104.71979636 634.59917678 -147.19502123 616.18017459 -183.25 590.3125 C-183.88824707 589.85584961 -184.52649414 589.39919922 -185.18408203 588.92871094 C-209.74884999 571.29021718 -209.74884999 571.29021718 -217.68359375 562.91796875 C-219.4340886 561.12382066 -221.28478192 559.50642494 -223.1875 557.875 C-230.12109476 551.8783775 -236.32724726 545.29768468 -242.25 538.3125 C-243.35794922 537.02085937 -243.35794922 537.02085937 -244.48828125 535.703125 C-254.47245498 523.91957068 -263.61988132 511.5702418 -272.0703125 498.64453125 C-273.84855634 495.92617641 -275.66338079 493.24129952 -277.5 490.5625 C-283.41034163 481.64745955 -287.86921024 472.01172653 -292.36328125 462.3359375 C-293.84725125 459.14891764 -295.39612457 456.00379083 -297 452.875 C-308.66897286 429.75217473 -314.31665423 403.4315767 -318.9375 378.125 C-319.14012451 377.0218042 -319.34274902 375.9186084 -319.55151367 374.78198242 C-322.65761198 357.13410887 -323.65680492 339.8450157 -323.625 321.9375 C-323.62478851 320.8354422 -323.62457703 319.7333844 -323.62435913 318.59793091 C-323.59372103 302.5765269 -322.9584692 287.09123514 -319.84423828 271.32910156 C-319.23050562 268.2135384 -318.68771037 265.09084674 -318.15234375 261.9609375 C-312.93664255 232.58201158 -302.49149595 203.53755035 -288.25 177.3125 C-287.78754883 176.44947266 -287.32509766 175.58644531 -286.84863281 174.69726562 C-279.93186215 161.85372853 -272.45284434 149.80196386 -263.64697266 138.17236328 C-261.75377234 135.65184598 -259.94381915 133.07449962 -258.125 130.5 C-246.42256874 114.46424168 -232.42496123 99.04275528 -217.34375 86.13671875 C-215.92181204 84.89782878 -214.52635768 83.62800997 -213.15625 82.33203125 C-205.81556954 75.43128883 -197.73887118 69.68732397 -189.5078125 63.90283203 C-187.45445476 62.4565115 -185.4135552 60.99440565 -183.375 59.52734375 C-160.28977308 43.08608429 -135.36659904 30.65916055 -109 20.5 C-108.29441956 20.22686981 -107.58883911 19.95373962 -106.86187744 19.67233276 C-87.08532954 12.0538953 -67.08863885 7.16764819 -46.25 3.3125 C-45.27804687 3.12880859 -44.30609375 2.94511719 -43.3046875 2.75585938 C-28.94164363 0.15850778 -14.55057197 0.03257102 0 0 Z " fill="#15A0EF" transform="translate(502.25,193.6875)"/>
<path d="M0 0 C10.15030126 3.75275223 18.07648194 11.0112571 25.57421875 18.59155273 C27.25626515 20.29174178 28.9406014 21.9896416 30.625 23.6875 C31.19734375 24.26822266 31.7696875 24.84894531 32.359375 25.44726562 C33.19082031 26.28354492 33.19082031 26.28354492 34.0390625 27.13671875 C34.78470459 27.89021606 34.78470459 27.89021606 35.54541016 28.65893555 C37.16744678 30.22441933 37.16744678 30.22441933 40 32 C40 32.66 40 33.32 40 34 C40.58789307 34.26192139 41.17578613 34.52384277 41.78149414 34.79370117 C44.11909667 36.06475808 45.63652604 37.40737956 47.49609375 39.30078125 C48.13740234 39.94853516 48.77871094 40.59628906 49.43945312 41.26367188 C50.42848633 42.2778418 50.42848633 42.2778418 51.4375 43.3125 C52.09298828 43.97701172 52.74847656 44.64152344 53.42382812 45.32617188 C55.28579809 47.21428786 57.14323042 49.10677211 59 51 C61.75153839 53.7905673 64.48504717 56.49702029 67.5 59 C70.48917139 61.52979656 73.26537501 64.1934112 76 67 C76.928125 67.886875 77.85625 68.77375 78.8125 69.6875 C81 72 81 72 81 74 C81.57111511 74.24645264 82.14223022 74.49290527 82.73065186 74.74682617 C85.37713129 76.20825851 87.16916964 77.91500019 89.30957031 80.05078125 C90.15013977 80.88504639 90.99070923 81.71931152 91.85675049 82.57885742 C93.20383087 83.9320105 93.20383087 83.9320105 94.578125 85.3125 C95.5046991 86.23716064 96.43127319 87.16182129 97.38592529 88.11450195 C99.3425837 90.06821699 101.29559143 92.02549111 103.24609375 93.98535156 C105.75015854 96.50084205 108.26313724 99.00720549 110.7788887 101.51100159 C113.17515944 103.8983264 115.5638015 106.29322188 117.953125 108.6875 C118.85927551 109.58960205 119.76542603 110.4917041 120.69903564 111.42114258 C121.52699646 112.25540771 122.35495728 113.08967285 123.20800781 113.94921875 C123.94206848 114.68487061 124.67612915 115.42052246 125.43243408 116.1784668 C127 118 127 118 127 120 C128.32 120.66 129.64 121.32 131 122 C131 122.66 131 123.32 131 124 C131.99 124.33 132.98 124.66 134 125 C135.42211914 126.44116211 135.42211914 126.44116211 136.97265625 128.33984375 C141.35830782 133.506139 146.11758726 138.26806152 150.9152832 143.0456543 C152.43491668 144.5599258 153.94912517 146.0794743 155.46289062 147.59960938 C156.45280459 148.58886239 157.4430288 149.57780508 158.43359375 150.56640625 C159.74928345 151.88040405 159.74928345 151.88040405 161.09155273 153.22094727 C163.17577999 155.25500205 165.33824812 157.16127571 167.55249023 159.05249023 C172.60851571 163.46546832 177.33017973 168.19018275 182.06860352 172.93920898 C183.05328138 173.92252868 184.03817116 174.90563621 185.02325439 175.8885498 C187.67632145 178.53709188 190.32625632 181.18874649 192.97546887 183.84114337 C195.76135091 186.62957468 198.54969196 189.41554541 201.33763123 192.20191956 C206.01716942 196.87964351 210.69460691 201.55946026 215.37084961 206.24047852 C220.76080097 211.63587106 226.15434506 217.02765196 231.54976898 222.41757149 C236.19983437 227.06308446 240.84793016 231.71056138 245.49441475 236.35965592 C248.26178761 239.12857987 251.02981273 241.8968427 253.79962349 244.66332817 C256.40470652 247.26550146 259.00729101 249.87014915 261.60804749 252.47664642 C263.00648926 253.87701973 264.40736348 255.27496266 265.80833435 256.67280579 C279.4549279 270.36478371 279.4549279 270.36478371 281 275 C280.50610352 276.92260742 280.50610352 276.92260742 279.62890625 279.10546875 C279.30623779 279.91564453 278.98356934 280.72582031 278.65112305 281.56054688 C278.29187744 282.42744141 277.93263184 283.29433594 277.5625 284.1875 C277.01106323 285.53618164 277.01106323 285.53618164 276.44848633 286.91210938 C273.02508938 295.16041348 269.1887134 303.1172888 265 311 C264.59410645 311.77311523 264.18821289 312.54623047 263.77001953 313.34277344 C257.23326299 325.74711159 250.03136509 337.50906001 242 349 C241.2678125 350.04929687 240.535625 351.09859375 239.78125 352.1796875 C235.13459243 358.68869592 230.13356586 364.87098306 225 371 C224.175 372.01191406 223.35 373.02382813 222.5 374.06640625 C216.20093079 381.69913967 209.41356267 388.79577854 202.4375 395.8125 C201.57543945 396.68374512 200.71337891 397.55499023 199.82519531 398.45263672 C193.85807584 404.39151348 187.57151533 409.74616641 181 415 C179.2056599 416.49680094 177.41367737 417.99643666 175.625 419.5 C170.21600444 423.91581841 164.58038322 427.9329709 158.77636719 431.80664062 C156.9767525 433.01561762 155.19583506 434.24929354 153.4140625 435.484375 C107.0200575 467.08514408 107.0200575 467.08514408 92.1875 465.74609375 C89.70280434 464.89863505 88.79471808 463.869498 87 462 C85.700625 461.5359375 85.700625 461.5359375 84.375 461.0625 C83.59125 460.711875 82.8075 460.36125 82 460 C81.6278958 458.67696283 81.29369827 457.34262065 81 456 C79.67986617 455.30756307 78.34428896 454.64428985 77 454 C75.92788896 453.16257993 74.88643176 452.28478033 73.875 451.375 C71.11143501 448.93931561 68.28070529 446.63918594 65.375 444.375 C60.01659991 440.11931944 55.04643115 435.50008537 50.05078125 430.83203125 C47.5985973 428.543175 45.10312188 426.31586131 42.5625 424.125 C39.21217037 421.21569041 36.02415035 418.25096163 33 415 C33 414.34 33 413.68 33 413 C32.26394531 412.75636719 31.52789063 412.51273438 30.76953125 412.26171875 C27.66519803 410.84747386 26.01714568 409.28694998 23.6875 406.8125 C20.86227983 403.88437445 18.03128932 401.08061923 14.9375 398.4375 C12.1677954 396.06268398 9.55990134 393.59982183 7 391 C3.82318453 387.7799205 0.52941095 384.77404214 -2.89453125 381.8203125 C-10.26153988 375.45106199 -17.38264729 368.81228259 -24.47094727 362.13647461 C-27.51896899 359.27509152 -30.59647362 356.47561213 -33.7734375 353.7578125 C-39.62880325 348.66785403 -44.99313875 343.06406321 -50.43652344 337.54296875 C-56.10651048 331.79944603 -61.83499237 326.21502539 -68 321 C-74.77646888 315.10176149 -81.18384048 308.90485349 -87.47094727 302.4921875 C-90.47348733 299.4473127 -93.51382476 296.50774057 -96.75366211 293.71508789 C-111.71268311 280.69397329 -125.5995818 266.50360155 -139.5625 252.4375 C-143.24814894 248.72471901 -146.93761121 245.01576161 -150.62890625 241.30859375 C-151.86502403 240.06002846 -151.86502403 240.06002846 -153.12611389 238.78623962 C-157.91694669 233.97525753 -162.83820091 229.40893132 -168 225 C-176.02412495 217.94768886 -183.87309548 210.83414139 -190 202 C-190 201.34 -190 200.68 -190 200 C-187.15352317 201.31711976 -184.90621883 202.81259443 -182.5 204.8125 C-170.6904577 213.56981123 -159.2558912 213.73994112 -145.140625 213.70703125 C-143.13993843 213.72016751 -141.13926508 213.73547759 -139.13861084 213.75285339 C-133.91081663 213.79249063 -128.68337105 213.80288007 -123.45544434 213.80688477 C-118.10560676 213.81625651 -112.7559706 213.85369513 -107.40625 213.88867188 C-96.93750924 213.95303086 -86.46892133 213.98644865 -76 214 C-75.99453156 215.52310539 -75.99453156 215.52310539 -75.98895264 217.07698059 C-75.95188389 226.68338488 -75.8939823 236.28947213 -75.81609726 245.89563465 C-75.77672151 250.83334931 -75.74448467 255.77088826 -75.72900391 260.70874023 C-75.71377183 265.48114125 -75.67921107 270.25305891 -75.63169098 275.02524376 C-75.61694442 276.83868883 -75.60896288 278.65220294 -75.60811615 280.46570778 C-75.59222931 297.44253503 -72.59345275 307.87357765 -60.6796875 320.44921875 C-50.31164505 330.53389026 -38.89010892 333.34248593 -24.91821289 333.3828125 C-12.09440497 333.16173222 -1.57983488 328.62963987 8 320 C21.75963172 305.53541561 22.27361695 288.51562212 22.4140625 269.6640625 C22.43282612 268.04738434 22.45240314 266.43071543 22.4727478 264.8140564 C22.5235276 260.6089836 22.56343873 256.40387922 22.60089111 252.19866943 C22.64127532 247.88757877 22.69220846 243.57661321 22.7421875 239.265625 C22.83830329 230.84383627 22.92290848 222.42198429 23 214 C24.09279266 213.99413376 25.18558533 213.98826752 26.31149292 213.98222351 C36.63925381 213.92486634 46.96680676 213.8520372 57.29435539 213.76428509 C62.60312235 213.71966821 67.9118141 213.68039306 73.22070312 213.65356445 C78.34963561 213.62744475 83.47827732 213.58698139 88.60702896 213.53681374 C90.55806978 213.52020349 92.50916083 213.508653 94.4602623 213.50238609 C109.24062782 213.45013313 121.00933738 212.61003471 133 203 C143.73366032 192.13320901 148.1742828 181.82914784 148.25 166.875 C148.270625 165.87984375 148.29125 164.8846875 148.3125 163.859375 C148.38168858 150.60976212 143.91872089 140.09325339 135 130.3125 C125.24017761 120.99855782 112.48581661 116.71817285 99.19726562 116.68115234 C98.35729034 116.67110672 97.51731506 116.6610611 96.65188599 116.65071106 C93.90334698 116.62006913 91.15490451 116.60289721 88.40625 116.5859375 C86.48953431 116.56721054 84.57282672 116.54763601 82.65612793 116.5272522 C77.63225096 116.47608637 72.60834731 116.43637771 67.58435059 116.39910889 C62.4493966 116.35897142 57.31455212 116.30792366 52.1796875 116.2578125 C42.11986877 116.16123747 32.05998798 116.0767741 22 116 C21.99453156 114.39839523 21.99453156 114.39839523 21.98895264 112.76443481 C21.9519138 102.6720946 21.89404427 92.580057 21.81609726 82.48794746 C21.77669043 77.30022087 21.74446865 72.11266229 21.72900391 66.92480469 C21.71379256 61.91251595 21.6792677 56.90068934 21.63169098 51.88860703 C21.61692327 49.98222764 21.60896165 48.07578225 21.60811615 46.16934586 C21.7664064 32.07420127 21.7664064 32.07420127 17 19 C16.564599 18.20917023 16.129198 17.41834045 15.68060303 16.60354614 C12.28790015 10.69192753 7.55419173 6.86561925 2.1953125 2.75 C1.10863281 1.88375 1.10863281 1.88375 0 1 C0 0.67 0 0.34 0 0 Z " fill="#025077" transform="translate(532,353)"/>
<path d="M0 0 C1.37015405 1.02054626 2.7250775 2.06192058 4.0625 3.125 C4.74699219 3.61355469 5.43148437 4.10210937 6.13671875 4.60546875 C13.13213725 10.00193445 18.26916969 18.44098699 20.0625 27.125 C20.15218848 29.94709739 20.18872017 32.74372131 20.17602539 35.56542969 C20.17617142 36.41457443 20.17631744 37.26371918 20.1764679 38.13859558 C20.17577201 40.9413815 20.16799476 43.74410071 20.16015625 46.546875 C20.15829092 48.49171919 20.15686756 50.43656386 20.15586853 52.38140869 C20.15205242 57.49747009 20.14222984 62.61350305 20.13116455 67.72955322 C20.12093098 72.95120865 20.11636674 78.17286868 20.11132812 83.39453125 C20.10060678 93.63803332 20.0835412 103.88151429 20.0625 114.125 C21.1110466 114.11611755 22.1595932 114.10723511 23.23991394 114.0980835 C33.16920057 114.0166488 43.09841856 113.95686819 53.02796459 113.91775131 C58.13166009 113.89696416 63.23508387 113.86881042 68.33862305 113.82324219 C73.27292324 113.77946571 78.2069637 113.75579635 83.14144325 113.74549103 C85.01472366 113.73815631 86.88799145 113.72383494 88.7611599 113.70207977 C106.16114883 113.50821293 120.64547463 115.93216102 133.8125 128.375 C143.814224 138.9245216 147.60523114 150.25616619 147.5 164.625 C147.51998047 165.59308594 147.53996094 166.56117188 147.56054688 167.55859375 C147.55326022 178.41571429 143.42572445 186.54987385 137.0625 195.125 C136.62292969 195.74246094 136.18335938 196.35992188 135.73046875 196.99609375 C129.43799868 205.13822361 120.08038674 210.24875148 110.0625 212.125 C103.26844873 212.66891149 96.42638719 212.47473152 89.6171875 212.41796875 C87.63608116 212.41236548 85.65497064 212.40809884 83.67385864 212.40510559 C78.4887318 212.39371437 73.30386167 212.36429703 68.11883545 212.33099365 C62.81623811 212.30016874 57.51359883 212.28657383 52.2109375 212.27148438 C41.82801292 212.23942137 31.44527791 212.18829504 21.0625 212.125 C21.06694122 213.008461 21.07138245 213.891922 21.07595825 214.80215454 C21.11626933 223.18598366 21.14660239 231.56977956 21.16612434 239.95368385 C21.17649861 244.26245939 21.19053948 248.57115389 21.21337891 252.87988281 C21.23533679 257.04907385 21.24711623 261.21818764 21.25225449 265.3874321 C21.25590955 266.96679269 21.26304494 268.54614974 21.27396011 270.12547684 C21.39801953 288.84450113 20.02884694 304.79023366 6.3984375 318.94140625 C-4.45694058 329.08882489 -17.06744242 332.86730225 -31.66845703 332.6484375 C-46.28936108 332.04285451 -56.87612794 325.88593215 -66.86328125 315.48046875 C-74.47283212 306.83911437 -78.44588543 298.0556836 -78.27807617 286.48413086 C-78.27873329 285.26783997 -78.27873329 285.26783997 -78.27940369 284.02697754 C-78.27733507 281.38101019 -78.25409659 278.73569863 -78.23046875 276.08984375 C-78.22486592 274.24182989 -78.22059907 272.39381155 -78.21760559 270.54579163 C-78.20621092 265.70752423 -78.17679062 260.86953169 -78.14349365 256.03137207 C-78.1126762 251.08410356 -78.09907541 246.13679018 -78.08398438 241.18945312 C-78.05191529 231.50118205 -78.00078474 221.81311398 -77.9375 212.125 C-79.58215744 212.1449855 -79.58215744 212.1449855 -81.26004028 212.16537476 C-91.6451427 212.28755076 -102.03009735 212.37720821 -112.41575813 212.43587303 C-117.75387898 212.4670485 -123.0914149 212.50926676 -128.42919922 212.57763672 C-133.59046975 212.64332427 -138.75118136 212.67880942 -143.91283798 212.69426346 C-145.87186341 212.70526183 -147.83086183 212.72673689 -149.78964615 212.75938034 C-163.31209262 212.97555973 -174.70355923 212.07430493 -185.75390625 203.37890625 C-186.66011719 202.49074219 -187.56632812 201.60257813 -188.5 200.6875 C-188.99121338 200.20724365 -189.48242676 199.7269873 -189.98852539 199.23217773 C-200.51094567 188.75207991 -205.2525207 176.40018543 -205.32250977 161.56591797 C-205.03522027 147.80397489 -198.28985247 136.7405354 -189.1875 126.875 C-184.69235753 122.5794488 -179.64247536 119.56075144 -173.9375 117.125 C-173.34525635 116.86916138 -172.7530127 116.61332275 -172.14282227 116.34973145 C-163.09960157 113.04926731 -153.62809322 113.75017104 -144.1484375 113.83203125 C-142.23459202 113.83763495 -140.32074221 113.84190139 -138.40689087 113.84489441 C-133.39931097 113.85628225 -128.39199714 113.88569653 -123.38452148 113.91900635 C-118.26289467 113.94983868 -113.14122436 113.96342774 -108.01953125 113.97851562 C-97.99207138 114.01057264 -87.96480792 114.06169472 -77.9375 114.125 C-77.94638245 113.10150955 -77.95526489 112.0780191 -77.9644165 111.02351379 C-78.04586471 101.32968711 -78.10563817 91.63593079 -78.14474869 81.94183826 C-78.16553249 76.95920753 -78.19367986 71.97685528 -78.23925781 66.99438477 C-78.28304657 62.17679331 -78.30670615 57.359468 -78.31700897 52.54169273 C-78.32434153 50.71306869 -78.33865855 48.88445751 -78.36042023 47.05594826 C-78.54062465 31.27194671 -77.0157008 18.35799559 -65.9375 6.125 C-63.0986957 3.50569088 -60.14964003 1.26447283 -56.9375 -0.875 C-56.37546875 -1.27332031 -55.8134375 -1.67164063 -55.234375 -2.08203125 C-39.21499105 -12.46352521 -15.49632564 -9.83725792 0 0 Z " fill="#FDFEFE" transform="translate(533.9375,354.875)"/>
<path d="M0 0 C10.15030126 3.75275223 18.07648194 11.0112571 25.57421875 18.59155273 C27.25626515 20.29174178 28.9406014 21.9896416 30.625 23.6875 C31.19734375 24.26822266 31.7696875 24.84894531 32.359375 25.44726562 C32.91367187 26.00478516 33.46796875 26.56230469 34.0390625 27.13671875 C34.53615723 27.63905029 35.03325195 28.14138184 35.54541016 28.65893555 C37.16744678 30.22441933 37.16744678 30.22441933 40 32 C40 32.66 40 33.32 40 34 C40.58789307 34.26192139 41.17578613 34.52384277 41.78149414 34.79370117 C44.11909667 36.06475808 45.63652604 37.40737956 47.49609375 39.30078125 C48.13740234 39.94853516 48.77871094 40.59628906 49.43945312 41.26367188 C50.09880859 41.93978516 50.75816406 42.61589844 51.4375 43.3125 C52.09298828 43.97701172 52.74847656 44.64152344 53.42382812 45.32617188 C55.28579809 47.21428786 57.14323042 49.10677211 59 51 C61.75153839 53.7905673 64.48504717 56.49702029 67.5 59 C70.48917139 61.52979656 73.26537501 64.1934112 76 67 C76.928125 67.886875 77.85625 68.77375 78.8125 69.6875 C81 72 81 72 81 74 C81.59103012 74.26636765 82.18206024 74.53273529 82.79100037 74.80717468 C85.04897567 76.0264461 86.53301711 77.27946213 88.34399414 79.08520508 C88.974673 79.70957962 89.60535187 80.33395416 90.25514221 80.97724915 C90.92504684 81.65120224 91.59495148 82.32515533 92.28515625 83.01953125 C92.98265488 83.71511642 93.6801535 84.4107016 94.39878845 85.12736511 C95.87126587 86.59848288 97.34122593 88.07212403 98.80883789 89.5480957 C101.05071553 91.80065936 103.30302603 94.04238897 105.55664062 96.28320312 C106.98762071 97.71550516 108.41798009 99.14842767 109.84765625 100.58203125 C110.51958511 101.24991165 111.19151398 101.91779205 111.88380432 102.60591125 C118.3082962 109.0949455 118.3082962 109.0949455 120 113 C119.505 114.98 119.505 114.98 119 117 C86.99 116.67 54.98 116.34 22 116 C21.75 73.125 21.75 73.125 21.70214844 59.63720703 C21.66888752 55.61238745 21.66888752 55.61238745 21.63043213 51.58761597 C21.61591398 49.80893292 21.60905028 48.03017652 21.60845947 46.25143433 C21.77328231 32.11386861 21.77328231 32.11386861 17 19 C16.564599 18.20917023 16.129198 17.41834045 15.68060303 16.60354614 C12.28790015 10.69192753 7.55419173 6.86561925 2.1953125 2.75 C1.47085938 2.1725 0.74640625 1.595 0 1 C0 0.67 0 0.34 0 0 Z " fill="#044769" transform="translate(532,353)"/>
<path d="M0 0 C2.84647683 1.31711976 5.09378117 2.81259443 7.5 4.8125 C19.3095423 13.56981123 30.7441088 13.73994112 44.859375 13.70703125 C46.86006157 13.72016751 48.86073492 13.73547759 50.86138916 13.75285339 C56.08918337 13.79249063 61.31662895 13.80288007 66.54455566 13.80688477 C71.89439324 13.81625651 77.2440294 13.85369513 82.59375 13.88867188 C93.06249076 13.95303086 103.53107867 13.98644865 114 14 C114.00546844 15.52310539 114.00546844 15.52310539 114.01104736 17.07698059 C114.04811611 26.68338488 114.1060177 36.28947213 114.18390274 45.89563465 C114.22327849 50.83334931 114.25551533 55.77088826 114.27099609 60.70874023 C114.28622817 65.48114125 114.32078893 70.25305891 114.36830902 75.02524376 C114.38305558 76.83868883 114.39103712 78.65220294 114.39188385 80.46570778 C114.33822257 93.47385419 114.33822257 93.47385419 118.24407959 105.78153992 C119.18253807 108.53570906 118.77316962 110.23599679 118 113 C115.08233463 113.26158812 113.52150996 113.37081152 111.09057617 111.64233398 C110.49736572 111.01657471 109.90415527 110.39081543 109.29296875 109.74609375 C108.62330078 109.05580078 107.95363281 108.36550781 107.26367188 107.65429688 C106.57853516 106.92275391 105.89339844 106.19121094 105.1875 105.4375 C103.82942218 104.01704157 102.46875047 102.5990585 101.10546875 101.18359375 C100.50887451 100.54993896 99.91228027 99.91628418 99.29760742 99.26342773 C96.66482173 96.66980791 93.89881606 94.26937554 91.10856628 91.84751892 C76.91070273 79.40739705 63.7272073 65.82541575 50.4375 52.4375 C46.75185106 48.72471901 43.06238879 45.01576161 39.37109375 41.30859375 C38.54701523 40.47621689 37.72293671 39.64384003 36.87388611 38.78623962 C32.08305331 33.97525753 27.16179909 29.40893132 22 25 C13.97587505 17.94768886 6.12690452 10.83414139 0 2 C0 1.34 0 0.68 0 0 Z " fill="#034668" transform="translate(342,553)"/>
<path d="M0 0 C0.33 0 0.66 0 1 0 C0.52666869 4.16531554 -0.25751903 8.07622965 -1.34765625 12.125 C-3.24645563 19.62888165 -4.49579142 27.21224698 -5.73486328 34.84667969 C-6.12672628 37.26063425 -6.52563651 39.67334323 -6.92578125 42.0859375 C-7.18269779 43.6457665 -7.43922203 45.20566017 -7.6953125 46.765625 C-7.81198273 47.47414612 -7.92865295 48.18266724 -8.04885864 48.91265869 C-9.42511187 57.40978851 -10.15020471 65.54528705 -10.1328125 74.15625 C-10.13376923 75.21678589 -10.13472595 76.27732178 -10.13571167 77.36999512 C-10.13638975 79.6089687 -10.13456151 81.84794429 -10.13037109 84.08691406 C-10.12506037 87.46163522 -10.13030669 90.83622068 -10.13671875 94.2109375 C-10.13993912 105.84807452 -9.95521222 117.39819694 -9 129 C-14.86333517 122.08119572 -13.10746555 111.54064676 -12.9140625 102.95703125 C-12.89282318 101.83036545 -12.87158386 100.70369965 -12.84970093 99.54289246 C-12.80368498 97.17038383 -12.75477946 94.79792967 -12.703125 92.42553711 C-12.62560406 88.8404359 -12.55814951 85.2552524 -12.4921875 81.66992188 C-11.86561929 49.41343867 -11.86561929 49.41343867 -9 40 C-7.41717188 33.0628203 -5.98583866 26.1716085 -5.5 19.0625 C-5.14998245 14.2479729 -3.88199115 10.40731601 -2 6 C-1.32264783 4.00359361 -0.65161065 2.00495586 0 0 Z " fill="#CEFAFE" transform="translate(190,427)"/>
<path d="M0 0 C0.33 0 0.66 0 1 0 C1.02558375 7.29165895 1.04296392 14.58330611 1.05493164 21.875 C1.05992664 24.3499393 1.06672491 26.82487569 1.07543945 29.29980469 C1.19859553 65.2034234 1.19859553 65.2034234 -3 75.4375 C-4.10592873 78.14190705 -4.10592873 78.14190705 -5 81.625 C-6 85 -6 85 -8 88 C-7.35572428 81.45097052 -6.31162944 75.08239342 -5.0625 68.625 C-0.85900118 45.80762865 -0.43618732 23.14452452 0 0 Z " fill="#C8EFFB" transform="translate(832,500)"/>
<path d="M0 0 C0.33 0 0.66 0 1 0 C0.56024854 9.70227352 -1.03356218 18.8720846 -3.25 28.3125 C-3.40584564 28.98954987 -3.56169128 29.66659973 -3.72225952 30.36416626 C-9.56718553 55.75616856 -9.56718553 55.75616856 -14 64 C-15.65 62.35 -17.3 60.7 -19 59 C-17.35 59 -15.7 59 -14 59 C-13.83564453 58.1646875 -13.83564453 58.1646875 -13.66796875 57.3125 C-12.69948819 52.6511952 -11.45105294 48.31987851 -9.7265625 43.88671875 C-7.19723912 37.31863706 -6.4784933 30.96333664 -6 24 C-5.34 24 -4.68 24 -4 24 C-4.02964844 23.00613281 -4.05929687 22.01226563 -4.08984375 20.98828125 C-3.99823426 16.92161628 -3.40950352 13.14674903 -2.5625 9.1875 C-2.42779297 8.52041016 -2.29308594 7.85332031 -2.15429688 7.16601562 C-1.14608434 2.29216867 -1.14608434 2.29216867 0 0 Z " fill="#2596D4" transform="translate(827,562)"/>
<path d="M0 0 C-5.59476128 2.79738064 -11.07775884 4.68547942 -17.125 6.1875 C-17.79337891 6.35411133 -18.46175781 6.52072266 -19.15039062 6.69238281 C-23.41273027 7.71492439 -27.66433652 8.38291918 -32 9 C-32.78375 9.33 -33.5675 9.66 -34.375 10 C-41.7739303 12.81864011 -50.73327927 12.2746263 -58.5625 12.5625 C-60.21862305 12.62727539 -60.21862305 12.62727539 -61.90820312 12.69335938 C-64.60537185 12.79844387 -67.30261703 12.90059413 -70 13 C-70 12.67 -70 12.34 -70 12 C-69.09797852 11.90295776 -69.09797852 11.90295776 -68.17773438 11.80395508 C-51.02673293 9.91611337 -15.60728237 -4.84363936 0 0 Z " fill="#BFEFFB" transform="translate(602,829)"/>
<path d="M0 0 C0.6726162 0.00093407 1.34523239 0.00186813 2.0382309 0.00283051 C6.57923551 0.00946678 11.11938401 0.04318581 15.66015625 0.09375 C16.83821335 0.10250153 18.01627045 0.11125305 19.23002625 0.12026978 C20.31822159 0.13923309 21.40641693 0.15819641 22.52758789 0.17773438 C23.9552523 0.19821838 23.9552523 0.19821838 25.41175842 0.21911621 C28.02365937 0.50958165 29.68925139 1.17441414 31.9375 2.5 C31.33933472 2.49333817 30.74116943 2.48667633 30.12487793 2.47981262 C23.76299556 2.41219787 17.40121882 2.36769158 11.0390625 2.33520508 C8.68094727 2.32033898 6.32285852 2.30004021 3.96484375 2.27368164 C-18.14789801 2.03312067 -39.36987692 4.34421215 -61.0625 8.5 C-60.0625 6.5 -60.0625 6.5 -58.22314453 5.72216797 C-38.99794102 0.17036591 -19.86879404 -0.06110078 0 0 Z " fill="#C5F5FE" transform="translate(500.0625,192.5)"/>
<path d="M0 0 C0.66 0.99 1.32 1.98 2 3 C1.03900391 3.94359375 1.03900391 3.94359375 0.05859375 4.90625 C-4.65137796 9.56708638 -9.23589584 14.25797078 -13.52734375 19.30859375 C-15.86870304 21.99774115 -18.34504549 24.3343455 -21.125 26.5625 C-24.00332155 28.67912299 -24.00332155 28.67912299 -25 31 C-25.99 31 -26.98 31 -28 31 C-28 31.66 -28 32.32 -28 33 C-30.31 33.66 -32.62 34.32 -35 35 C-31.97263572 31.92827874 -28.89213578 28.95534595 -25.69848633 26.05444336 C-19.93359865 20.81729559 -14.32779717 15.43677597 -8.8125 9.9375 C-8.16490723 9.29441895 -7.51731445 8.65133789 -6.85009766 7.98876953 C-6.24601074 7.38274902 -5.64192383 6.77672852 -5.01953125 6.15234375 C-4.48432861 5.61601318 -3.94912598 5.07968262 -3.39770508 4.52709961 C-1.78566459 2.84379796 -1.78566459 2.84379796 0 0 Z " fill="#D8F3F8" transform="translate(749,732)"/>
<path d="M0 0 C1.1055189 0.93590504 2.20935453 1.87379858 3.3125 2.8125 C3.92738281 3.33457031 4.54226563 3.85664063 5.17578125 4.39453125 C8.51952278 7.3373102 8.51952278 7.3373102 10 9 C10 9.66 10 10.32 10 11 C11.32 11.66 12.64 12.32 14 13 C14 13.66 14 14.32 14 15 C14.99 15.33 15.98 15.66 17 16 C18.859375 17.70703125 18.859375 17.70703125 20.75 19.8125 C21.38421875 20.49957031 22.0184375 21.18664062 22.671875 21.89453125 C24 24 24 24 23.703125 26.26171875 C23.47109375 26.83535156 23.2390625 27.40898437 23 28 C22.5875 27.49210937 22.175 26.98421875 21.75 26.4609375 C15.76956218 19.3324692 9.71533653 14.40125311 1.078125 10.859375 C-1.00330372 9.9986338 -2.99701004 9.02856241 -5 8 C-2.69 8 -0.38 8 2 8 C1.47731534 5.23723823 0.89130413 2.6739124 0 0 Z " fill="#135777" transform="translate(649,462)"/>
<path d="M0 0 C6.15234375 -0.09765625 6.15234375 -0.09765625 8 0 C8.33 0.33 8.66 0.66 9 1 C10.70100391 1.35020669 12.41144686 1.65502053 14.125 1.9375 C17.342511 2.49096146 20.31231176 3.09653273 23.4375 4.0625 C27.79896385 5.21025364 32.03164543 5.48083204 36.5234375 5.75390625 C39 6 39 6 40 7 C43.55743849 7.28659671 47.11499153 7.4490807 50.6796875 7.62109375 C54 8 54 8 57 10 C38.79361487 11.05036837 19.31894739 7.64645134 2 2 C1.34 1.34 0.68 0.68 0 0 Z " fill="#2795D0" transform="translate(422,831)"/>
<path d="M0 0 C2 3 2 3 1.71484375 5.22265625 C1.47894531 6.13917969 1.24304688 7.05570313 1 8 C0.77441406 9.17433594 0.54882812 10.34867188 0.31640625 11.55859375 C0.06761719 12.83863281 -0.18117188 14.11867188 -0.4375 15.4375 C-0.68371094 16.71496094 -0.92992187 17.99242187 -1.18359375 19.30859375 C-1.9216093 22.64555403 -2.85197072 25.78452406 -4 29 C-3.34 29.33 -2.68 29.66 -2 30 C-2.99 30.66 -3.98 31.32 -5 32 C-5.86126277 33.78366431 -5.86126277 33.78366431 -6.4375 35.8125 C-7.69941828 39.49756988 -9.36058499 42.08754206 -12 45 C-11.35197714 40.07039749 -9.90738035 35.59907634 -8.25 30.9375 C-4.74353109 20.80271509 -2.31737948 10.46086873 0 0 Z " fill="#C7F2FC" transform="translate(823,589)"/>
<path d="M0 0 C5.28 0 10.56 0 16 0 C11.05365337 2.47317332 6.26571992 3.39355849 0.875 4.5 C-0.7322998 4.83100708 -0.7322998 4.83100708 -2.37207031 5.16870117 C-15.52395472 7.80005807 -28.55536099 9.47451667 -42 9 C-42 8.67 -42 8.34 -42 8 C-40.96746094 7.90203125 -39.93492187 7.8040625 -38.87109375 7.703125 C-29.67186999 6.78160276 -20.55454989 5.53841743 -11.4375 4 C-9.91177368 3.7510498 -9.91177368 3.7510498 -8.35522461 3.49707031 C-7.41171143 3.33303711 -6.46819824 3.16900391 -5.49609375 3 C-4.65232178 2.855625 -3.8085498 2.71125 -2.93920898 2.5625 C-2.29927002 2.376875 -1.65933105 2.19125 -1 2 C-0.67 1.34 -0.34 0.68 0 0 Z " fill="#2494D2" transform="translate(568,832)"/>
<path d="M0 0 C3.38005327 1.44859426 5.4587228 3.37330171 8 6 C3.6117705 7.56062569 -0.78073624 9.1083294 -5.17749023 10.64477539 C-6.66926019 11.16803099 -8.15985266 11.69465723 -9.64916992 12.22485352 C-24.88252691 17.64308743 -24.88252691 17.64308743 -33 18 C-28.99712008 14.23971886 -26.35652407 13.6911644 -21 13 C-18.11537977 12.02633967 -15.28698285 10.95201422 -12.453125 9.83984375 C-10 9 -10 9 -7 9 C-6.67 8.01 -6.34 7.02 -6 6 C-2.535 5.505 -2.535 5.505 1 5 C0.505 2.525 0.505 2.525 0 0 Z " fill="#1F87C4" transform="translate(617,814)"/>
<path d="M0 0 C4.65089656 3.09005146 9.29182367 6.19347448 13.91015625 9.33203125 C24.35665814 16.40354037 34.87339502 23.05112209 46 29 C46 29.33 46 29.66 46 30 C41.04008264 30.63516833 38.09071665 28.46590227 34.1875 25.75 C28.56350257 21.95830269 28.56350257 21.95830269 22.5625 18.8125 C19.02106783 17.01071872 16.51390801 15.05914682 13.640625 12.3671875 C12.01374534 10.90269541 12.01374534 10.90269541 9.859375 9.9453125 C8 9 8 9 7 7 C6.01 6.67 5.02 6.34 4 6 C4 5.34 4 4.68 4 4 C2.68 3.34 1.36 2.68 0 2 C0 1.34 0 0.68 0 0 Z " fill="#C5F4FD" transform="translate(307,775)"/>
<path d="M0 0 C1.7173938 0.2158374 1.7173938 0.2158374 3.46948242 0.43603516 C4.57167618 0.57322968 4.57167618 0.57322968 5.69613647 0.7131958 C7.14816602 0.89395658 8.60003395 1.07602507 10.05166626 1.25994873 C23.759894 2.9653847 37.38466551 3.41634366 51.1875 3.625 C53.31707098 3.66330923 55.44662861 3.7023677 57.57617188 3.7421875 C62.71733571 3.83672789 67.85857105 3.92125076 73 4 C73 4.33 73 4.66 73 5 C65.72273955 5.1687803 58.44532091 5.32856474 51.16772461 5.48217773 C48.69339556 5.53545702 46.2191095 5.59077471 43.74487305 5.64819336 C40.18287424 5.73049793 36.62078377 5.8054049 33.05859375 5.87890625 C31.95728622 5.90594131 30.8559787 5.93297638 29.72129822 5.96083069 C24.3465595 6.06463371 19.29119016 5.97789887 14 5 C14 4.34 14 3.68 14 3 C13.07316406 2.95101562 12.14632813 2.90203125 11.19140625 2.8515625 C9.99386719 2.77679687 8.79632813 2.70203125 7.5625 2.625 C6.36753906 2.55539062 5.17257812 2.48578125 3.94140625 2.4140625 C2.97074219 2.27742187 2.00007813 2.14078125 1 2 C0.67 1.34 0.34 0.68 0 0 Z " fill="#A4DEF2" transform="translate(449,838)"/>
<path d="M0 0 C0.33 0.99 0.66 1.98 1 3 C1.99 3 2.98 3 4 3 C4 3.66 4 4.32 4 5 C5.32 5 6.64 5 8 5 C8 5.66 8 6.32 8 7 C8.99 7 9.98 7 11 7 C11 7.66 11 8.32 11 9 C11.71285156 9.103125 12.42570312 9.20625 13.16015625 9.3125 C17.29164489 10.31269532 20.54918213 12.47433822 24.18359375 14.625 C27.16460407 16.08036149 29.72067638 16.61362903 33 17 C33 17.66 33 18.32 33 19 C33.99 19 34.98 19 36 19 C36 19.66 36 20.32 36 21 C36.639375 21.12375 37.27875 21.2475 37.9375 21.375 C38.9584375 21.684375 38.9584375 21.684375 40 22 C40.495 22.99 40.495 22.99 41 24 C33.64335812 21.76700683 26.97846391 18.71572132 20.125 15.25 C19.11308594 14.74984375 18.10117187 14.2496875 17.05859375 13.734375 C10.08332531 10.23334398 3.5053594 6.30909873 -3 2 C-2.01 1.34 -1.02 0.68 0 0 Z " fill="#2597D6" transform="translate(337,792)"/>
<path d="M0 0 C4.65145228 1.46887967 4.65145228 1.46887967 6.3125 4 C7 6 7 6 7 8 C7.66 8 8.32 8 9 8 C10.35373964 9.50903877 11.63443401 11.08412698 12.875 12.6875 C13.55304688 13.55761719 14.23109375 14.42773438 14.9296875 15.32421875 C16.31494285 17.11459594 17.69512532 18.90890915 19.0703125 20.70703125 C20.97133765 23.18271292 20.97133765 23.18271292 24 25 C24 25.66 24 26.32 24 27 C25.32 27.66 26.64 28.32 28 29 C27.34 29.66 26.68 30.32 26 31 C20.41412827 25.52812565 15.04926991 19.97014086 10 14 C9.57976562 13.50999512 9.15953125 13.01999023 8.7265625 12.51513672 C7.33296036 10.88975964 5.94691521 9.25820584 4.5625 7.625 C3.88779663 6.83838989 3.88779663 6.83838989 3.19946289 6.03588867 C0 2.22919219 0 2.22919219 0 0 Z " fill="#2499D8" transform="translate(250,718)"/>
<path d="M0 0 C2 1 2 1 2.61083984 2.77197266 C3.70422572 7.98943476 4.39834918 13.050777 4.625 18.375 C4.66294678 19.15721924 4.70089355 19.93943848 4.73999023 20.74536133 C5.23620967 32.48697078 5.08564301 44.25109667 5 56 C4.67 56 4.34 56 4 56 C3.9498877 55.02353516 3.89977539 54.04707031 3.84814453 53.04101562 C3.65640409 49.33545186 3.45691939 45.63033511 3.25537109 41.92529297 C3.17000269 40.33718491 3.08659417 38.74897 3.00537109 37.16064453 C2.50896836 27.48385553 1.73473511 17.93721633 0.39794922 8.33789062 C0.06081373 5.51008913 -0.08043528 2.84159586 0 0 Z " fill="#DCFCFE" transform="translate(829,467)"/>
<path d="M0 0 C3.3 0.33 6.6 0.66 10 1 C10 1.66 10 2.32 10 3 C11.32 3 12.64 3 14 3 C14 3.66 14 4.32 14 5 C14.8146875 5.103125 15.629375 5.20625 16.46875 5.3125 C21.43088955 6.27858027 25.99604717 8.06706854 30.72265625 9.828125 C34.8122272 11.32056234 38.65302181 12.4497496 43 13 C43 13.66 43 14.32 43 15 C37.32986385 14.45698028 32.45169364 13.35616518 27.125 11.375 C26.40900635 11.1157373 25.6930127 10.85647461 24.95532227 10.58935547 C16.58403331 7.53289741 8.28725224 4.27613012 0 1 C0 0.67 0 0.34 0 0 Z " fill="#2493CF" transform="translate(378,816)"/>
<path d="M0 0 C0.66 0 1.32 0 2 0 C2 0.99 2 1.98 2 3 C2.66 3 3.32 3 4 3 C5.00508801 4.78881736 6.00392736 6.58114696 7 8.375 C7.8353125 9.87160156 7.8353125 9.87160156 8.6875 11.3984375 C10 14 10 14 10 16 C10.66 16 11.32 16 12 16 C12.6496875 17.3921875 12.6496875 17.3921875 13.3125 18.8125 C14.76105525 21.92647854 14.76105525 21.92647854 16.6875 23.6875 C17.120625 24.120625 17.55375 24.55375 18 25 C18 25.99 18 26.98 18 28 C18.66 28.33 19.32 28.66 20 29 C19.67 30.32 19.34 31.64 19 33 C1.52455697 7.33797753 1.52455697 7.33797753 0 0 Z " fill="#2497D6" transform="translate(215,665)"/>
<path d="M0 0 C0.33 0 0.66 0 1 0 C1.15855469 1.0209375 1.31710938 2.041875 1.48046875 3.09375 C3.13671424 13.48535479 5.14266192 23.75970308 7.46166992 34.02539062 C7.6754126 35.00443359 7.88915527 35.98347656 8.109375 36.9921875 C8.30499023 37.86214355 8.50060547 38.73209961 8.70214844 39.62841797 C9.0096393 42.07675094 8.76602264 43.67433373 8 46 C5.56012891 43.56012891 5.60849874 42.5014427 5.21875 39.1328125 C5.09886719 38.16472656 4.97898438 37.19664062 4.85546875 36.19921875 C4.73816406 35.18472656 4.62085938 34.17023437 4.5 33.125 C4.26717575 31.12680503 4.02783506 29.12935604 3.78125 27.1328125 C3.67876953 26.24480957 3.57628906 25.35680664 3.47070312 24.44189453 C2.99453515 21.97164965 2.18372985 20.2020399 1 18 C0.62109375 15.8515625 0.62109375 15.8515625 0.4375 13.625 C0.19100224 10.90007931 -0.12532312 8.32325514 -0.625 5.625 C-1 3 -1 3 0 0 Z " fill="#A5E5FB" transform="translate(181,558)"/>
<path d="M0 0 C2.04687058 0.01005913 4.09374599 0.01917975 6.140625 0.02734375 C11.09387219 0.04910355 16.04688076 0.08346843 21 0.125 C21 0.455 21 0.785 21 1.125 C19.79875488 1.15005615 18.59750977 1.1751123 17.35986328 1.20092773 C12.91313571 1.29493144 8.46656693 1.39516917 4.02001953 1.49731445 C2.09362496 1.54069001 0.16719129 1.58236314 -1.75927734 1.62231445 C-4.52453408 1.67995362 -7.2895935 1.74366616 -10.0546875 1.80859375 C-10.9193161 1.82530624 -11.7839447 1.84201874 -12.67477417 1.85923767 C-16.97395852 1.84659896 -16.97395852 1.84659896 -21 3.125 C-22.37548156 3.20808638 -23.75485796 3.23236016 -25.1328125 3.22265625 C-25.93847656 3.21943359 -26.74414062 3.21621094 -27.57421875 3.21289062 C-28.41597656 3.20451172 -29.25773437 3.19613281 -30.125 3.1875 C-30.97449219 3.18298828 -31.82398438 3.17847656 -32.69921875 3.17382812 C-34.79950909 3.16202874 -36.8997633 3.14409306 -39 3.125 C-39 2.795 -39 2.465 -39 2.125 C-25.95929899 0.0264692 -13.18129336 -0.11392833 0 0 Z " fill="#37A4D8" transform="translate(503,193.875)"/>
<path d="M0 0 C0.66 0 1.32 0 2 0 C5.31818836 7.70823137 8.63146327 15.41777019 11.83203125 23.17578125 C12.60853714 25.05341923 13.39756649 26.92592846 14.19921875 28.79296875 C14.56660156 29.66566406 14.93398438 30.53835938 15.3125 31.4375 C15.63863281 32.19933594 15.96476563 32.96117187 16.30078125 33.74609375 C17.08290578 36.26724376 17.1249787 38.37544739 17 41 C14.79972316 38.79972316 14.29988049 37.42890135 13.30078125 34.51953125 C12.98173828 33.60913086 12.66269531 32.69873047 12.33398438 31.76074219 C11.99689453 30.78782227 11.65980469 29.81490234 11.3125 28.8125 C8.38450115 20.52371952 5.13836282 12.58400322 1.25 4.703125 C0 2 0 2 0 0 Z " fill="#D3F9FE" transform="translate(800,377)"/>
<path d="M0 0 C3.14621682 0.13822199 6.29185566 0.28685084 9.4375 0.4375 C10.33533203 0.47681641 11.23316406 0.51613281 12.15820312 0.55664062 C13.01220703 0.59853516 13.86621094 0.64042969 14.74609375 0.68359375 C15.53685303 0.72025146 16.3276123 0.75690918 17.14233398 0.79467773 C19 1 19 1 20 2 C21.88933295 2.34965882 23.78701712 2.6546483 25.6875 2.9375 C36.70626771 4.70626771 36.70626771 4.70626771 40 8 C34.00057315 7.32955714 28.15830779 6.29046562 22.25 5.0625 C14.85300913 3.55140434 7.46247484 2.15274002 0 1 C0 0.67 0 0.34 0 0 Z " fill="#C6F3FD" transform="translate(544,196)"/>
<path d="M0 0 C6.99022343 2.58441359 13.48300987 7.00022769 19 12 C19.33 12.99 19.66 13.98 20 15 C18.35 15.33 16.7 15.66 15 16 C14.566875 15.195625 14.13375 14.39125 13.6875 13.5625 C10.76633926 9.089807 6.42831183 6.1082489 2.265625 2.85546875 C1.51796875 2.24316406 0.7703125 1.63085938 0 1 C0 0.67 0 0.34 0 0 Z " fill="#095279" transform="translate(532,353)"/>
<path d="M0 0 C3.04628353 2.03085569 3.61228873 2.77007092 5.1875 5.875 C7.90710996 11.00555253 11.1275326 15.72247324 14.42578125 20.49609375 C16 23 16 23 16 25 C15.34 25 14.68 25 14 25 C13.731875 24.195625 13.46375 23.39125 13.1875 22.5625 C12.795625 21.716875 12.40375 20.87125 12 20 C11.01 19.67 10.02 19.34 9 19 C8.67 17.02 8.34 15.04 8 13 C7.01 12.67 6.02 12.34 5 12 C2.39853671 8.02129144 0.57930104 4.77923358 0 0 Z " fill="#C6F1FC" transform="translate(219,675)"/>
<path d="M0 0 C0.99 0 1.98 0 3 0 C5.13898002 8.34067679 6.55046968 16.39691968 7 25 C7.66 25 8.32 25 9 25 C9 28.3 9 31.6 9 35 C8.67 35 8.34 35 8 35 C7.86424561 34.33057373 7.72849121 33.66114746 7.58862305 32.97143555 C6.95866184 29.87601463 6.3231085 26.78176604 5.6875 23.6875 C5.47416016 22.63498047 5.26082031 21.58246094 5.04101562 20.49804688 C3.61574109 13.58440172 1.94474362 6.78589592 0 0 Z " fill="#CAF4FD" transform="translate(820,431)"/>
<path d="M0 0 C-0.5625 1.875 -0.5625 1.875 -2 4 C-3.64727218 4.50572305 -5.29836331 5.00199717 -6.96557617 5.4375 C-10.51545575 6.41900997 -13.93281422 7.75979433 -17.375 9.0625 C-18.09816406 9.33126953 -18.82132812 9.60003906 -19.56640625 9.87695312 C-23.04606474 10.99026821 -23.04606474 10.99026821 -26 13 C-27.66617115 13.04063832 -29.33388095 13.042721 -31 13 C-28.53666947 10.53666947 -26.39360853 9.89069283 -23.125 8.6875 C-16.45626296 6.18765085 -7.07351447 0 0 0 Z " fill="#33A2D7" transform="translate(398,213)"/>
<path d="M0 0 C0 0.66 0 1.32 0 2 C-1.66702731 2.71444028 -3.33445618 3.42795826 -5.00390625 4.13671875 C-6.84971924 4.93500578 -8.67596735 5.7781277 -10.5 6.625 C-14.05617662 8.02206939 -17.22115485 8.55542998 -21 9 C-21.99 9.495 -21.99 9.495 -23 10 C-23.66 9.34 -24.32 8.68 -25 8 C-21.21008507 6.66165014 -17.41779164 5.33017337 -13.625 4 C-12.54476562 3.6184375 -11.46453125 3.236875 -10.3515625 2.84375 C-9.3203125 2.4828125 -8.2890625 2.121875 -7.2265625 1.75 C-6.27346191 1.41484375 -5.32036133 1.0796875 -4.33837891 0.734375 C-2 0 -2 0 0 0 Z " fill="#CBF2FB" transform="translate(627,819)"/>
<path d="M0 0 C0.33 0 0.66 0 1 0 C1.09934245 6.10404182 1.08565702 11.96857212 0 18 C-0.185625 19.2065625 -0.185625 19.2065625 -0.375 20.4375 C-1.26655857 24.09289012 -2.63355434 27.49476984 -4 31 C-5.29101314 27.31139103 -4.73724424 24.495019 -4.00390625 20.703125 C-3.77509766 19.49785156 -3.54628906 18.29257812 -3.31054688 17.05078125 C-3.06369141 15.79652344 -2.81683594 14.54226563 -2.5625 13.25 C-2.31951172 11.98027344 -2.07652344 10.71054687 -1.82617188 9.40234375 C-1.22497632 6.26669637 -0.61597659 3.13277141 0 0 Z " fill="#B9EDFB" transform="translate(829,557)"/>
<path d="M0 0 C0.33 0 0.66 0 1 0 C1.51003854 3.16513278 2.00615957 6.33230284 2.5 9.5 C2.64308594 10.386875 2.78617188 11.27375 2.93359375 12.1875 C3.75865611 17.53076099 4.15157107 22.59396514 4 28 C-2.17865633 20.67837508 -0.1171855 9.036304 0 0 Z " fill="#CAF3FD" transform="translate(177,528)"/>
<path d="M0 0 C3.78313797 7.49621782 7.28604881 14.74187152 9 23 C8.34 23 7.68 23 7 23 C7 22.34 7 21.68 7 21 C6.34 21 5.68 21 5 21 C4.80664062 20.31292969 4.61328125 19.62585938 4.4140625 18.91796875 C4.15367187 18.01691406 3.89328125 17.11585938 3.625 16.1875 C3.36976563 15.29417969 3.11453125 14.40085937 2.8515625 13.48046875 C2.04733339 10.79532104 2.04733339 10.79532104 0 8 C-0.25760279 5.30547479 -0.08900053 2.71451625 0 0 Z " fill="#C4F2FC" transform="translate(196,623)"/>
<path d="M0 0 C5.54119946 0.33925711 10.49902063 1.67700831 15.75 3.4375 C16.7246521 3.7636731 16.7246521 3.7636731 17.71899414 4.09643555 C20.93257227 5.20083066 24.01125748 6.37732414 27 8 C20.09838799 8.36972921 15.00725414 7.18577499 8.9375 3.875 C6.05634539 2.5738334 3.11888039 2.35987081 0 2 C0 1.34 0 0.68 0 0 Z " fill="#C0EFFB" transform="translate(397,825)"/>
<path d="M0 0 C1.11328125 1.78515625 1.11328125 1.78515625 2 4 C1.05946886 5.78376596 0.10450287 7.56556842 -0.9921875 9.2578125 C-2.18597946 11.07917005 -2.18597946 11.07917005 -2.4375 13.8125 C-2.623125 14.534375 -2.80875 15.25625 -3 16 C-5.5625 17.3125 -5.5625 17.3125 -8 18 C-6.65150163 13.64029169 -4.95092154 9.68658562 -2.875 5.625 C-2.33617187 4.56539062 -1.79734375 3.50578125 -1.2421875 2.4140625 C-0.83226562 1.61742187 -0.42234375 0.82078125 0 0 Z " fill="#D0ECF4" transform="translate(802,652)"/>
<path d="M0 0 C0.66 0.33 1.32 0.66 2 1 C1.31164062 1.98226563 1.31164062 1.98226563 0.609375 2.984375 C-3.92330493 9.72626027 -6.80496041 16.18784045 -9 24 C-9.33 24 -9.66 24 -10 24 C-9.48041715 19.62065881 -8.94324258 15.31196609 -8 11 C-7.34 11 -6.68 11 -6 11 C-6 9.68 -6 8.36 -6 7 C-5.34 7 -4.68 7 -4 7 C-4 6.01 -4 5.02 -4 4 C-3.34 4 -2.68 4 -2 4 C-2 3.01 -2 2.02 -2 1 C-1.34 0.67 -0.68 0.34 0 0 Z " fill="#35A6E0" transform="translate(339,486)"/>
<path d="M0 0 C16.67681517 2.5133498 16.67681517 2.5133498 24 5 C24.33 5.66 24.66 6.32 25 7 C19.25232237 7.58649772 14.56880991 6.44653506 9.125 4.625 C8.45847412 4.40368408 7.79194824 4.18236816 7.10522461 3.9543457 C4.19812098 2.94170894 2.20335925 2.20335925 0 0 Z " fill="#C7F5FD" transform="translate(425,833)"/>
<path d="M0 0 C2.35171131 0.59861742 4.6859378 1.26924352 7 2 C7.33 2.66 7.66 3.32 8 4 C9.98 4 11.96 4 14 4 C14.28875 4.804375 14.5775 5.60875 14.875 6.4375 C15.73262568 9.1326468 15.73262568 9.1326468 18 10 C18 10.66 18 11.32 18 12 C14.20810923 10.63410386 11.15618622 8.89545351 7.875 6.5625 C7.02679688 5.96566406 6.17859375 5.36882813 5.3046875 4.75390625 C3.35690684 3.27161216 1.66837561 1.78287198 0 0 Z " fill="#2398D8" transform="translate(316,781)"/>
<path d="M0 0 C-5.61 3.96 -11.22 7.92 -17 12 C-17.66 11.34 -18.32 10.68 -19 10 C-18.36191406 9.59007812 -17.72382812 9.18015625 -17.06640625 8.7578125 C-16.24011719 8.21898437 -15.41382813 7.68015625 -14.5625 7.125 C-13.73878906 6.59132813 -12.91507813 6.05765625 -12.06640625 5.5078125 C-9.88961129 4.16165694 -9.88961129 4.16165694 -9 2 C-3.56692913 -1.18897638 -3.56692913 -1.18897638 0 0 Z " fill="#1E6489" transform="translate(706,774)"/>
<path d="M0 0 C4.19129613 1.19751318 6.09919814 3.06452967 8.7421875 6.48046875 C10.55673394 8.67257609 12.74564998 10.27957498 15 12 C16.0173873 12.98230498 17.02596117 13.97469597 18 15 C17.67 15.99 17.34 16.98 17 18 C14.16266225 15.19151503 11.33081251 12.37756077 8.5 9.5625 C7.68917969 8.76005859 6.87835938 7.95761719 6.04296875 7.13085938 C5.27597656 6.36708984 4.50898438 5.60332031 3.71875 4.81640625 C3.00654297 4.10943604 2.29433594 3.40246582 1.56054688 2.67407227 C0 1 0 1 0 0 Z " fill="#005180" transform="translate(398,610)"/>
<path d="M0 0 C0 0.99 0 1.98 0 3 C-0.86625 3.309375 -0.86625 3.309375 -1.75 3.625 C-4.27019155 4.93478135 -4.27019155 4.93478135 -5.875 8 C-8.34319375 11.48450883 -9.91734219 12.07212323 -14 13 C-11.34839221 7.16646287 -5.66215358 2.83107679 0 0 Z " fill="#CFF6FD" transform="translate(479,353)"/>
<path d="M0 0 C3.38005327 1.44859426 5.4587228 3.37330171 8 6 C6.0636296 6.50435694 4.12585854 7.00333874 2.1875 7.5 C1.10855469 7.7784375 0.02960937 8.056875 -1.08203125 8.34375 C-4 9 -4 9 -7 9 C-6.67 8.01 -6.34 7.02 -6 6 C-2.535 5.505 -2.535 5.505 1 5 C0.67 3.35 0.34 1.7 0 0 Z " fill="#167EBF" transform="translate(617,814)"/>
<path d="M0 0 C6.4731208 3.79756421 10.91337523 7.68576408 15 14 C12.69 13.34 10.38 12.68 8 12 C8 10.35 8 8.7 8 7 C7.01 7 6.02 7 5 7 C5 6.34 5 5.68 5 5 C3.35 4.67 1.7 4.34 0 4 C-0.33 3.01 -0.66 2.02 -1 1 C-0.67 0.67 -0.34 0.34 0 0 Z " fill="#0E85C6" transform="translate(556,760)"/>
<path d="M0 0 C0.33 0 0.66 0 1 0 C1.10957031 1.12277344 1.21914063 2.24554687 1.33203125 3.40234375 C2.15155646 11.29886571 3.02822418 18.57056045 6 26 C5.01 26 4.02 26 3 26 C3 24.35 3 22.7 3 21 C2.34 21 1.68 21 1 21 C-0.32719886 14.03220597 -0.08825381 7.07011089 0 0 Z " fill="#37A6E0" transform="translate(328,514)"/>
<path d="M0 0 C1.07174763 3.65188082 0.76411467 6.26432828 0 10 C-0.66 10 -1.32 10 -2 10 C-2.33 15.94 -2.66 21.88 -3 28 C-3.33 28 -3.66 28 -4 28 C-4.4642314 17.83849055 -4.05109759 9.54901575 0 0 Z " fill="#99DCF5" transform="translate(333,498)"/>
<path d="M0 0 C0 7.43788178 -7.27911363 15.20353346 -12.25 20.3125 C-12.8275 20.869375 -13.405 21.42625 -14 22 C-12.35453838 16.99464369 -9.43542153 13.0184875 -6.4375 8.75 C-5.93025391 8.0178125 -5.42300781 7.285625 -4.90039062 6.53125 C-1.17766907 1.17766907 -1.17766907 1.17766907 0 0 Z " fill="#32A8D9" transform="translate(238,333)"/>
<path d="M0 0 C0 0.66 0 1.32 0 2 C-0.66 2 -1.32 2 -2 2 C-2 2.66 -2 3.32 -2 4 C-2.804375 4.2475 -3.60875 4.495 -4.4375 4.75 C-8.74324143 6.26078647 -12.85364007 8.10188856 -17 10 C-17.66 9.34 -18.32 8.68 -19 8 C-16.21128823 6.66042079 -13.41856938 5.32941565 -10.625 4 C-9.8309375 3.6184375 -9.036875 3.236875 -8.21875 2.84375 C-7.45820312 2.4828125 -6.69765625 2.121875 -5.9140625 1.75 C-5.2123291 1.41484375 -4.5105957 1.0796875 -3.78759766 0.734375 C-2 0 -2 0 0 0 Z " fill="#C1E9F1" transform="translate(653,807)"/>
<path d="M0 0 C0.33 0 0.66 0 1 0 C0.31697126 5.41390145 -0.77706302 10.63677579 -2.0625 15.9375 C-2.3419043 17.10635742 -2.3419043 17.10635742 -2.62695312 18.29882812 C-3.08181009 20.19989697 -3.5405062 22.10004657 -4 24 C-4.33 24 -4.66 24 -5 24 C-5.37571646 17.20927292 -4.71791582 12.20480295 -2 6 C-1.32264783 4.00359361 -0.65161065 2.00495586 0 0 Z " fill="#D9F9FE" transform="translate(190,427)"/>
<path d="M0 0 C1.98 0.99 1.98 0.99 4 2 C4 2.66 4 3.32 4 4 C4.57234375 4.25523437 5.1446875 4.51046875 5.734375 4.7734375 C8.24173733 6.13087159 10.1330456 7.71974104 12.25 9.625 C12.95640625 10.25664063 13.6628125 10.88828125 14.390625 11.5390625 C14.92171875 12.02117188 15.4528125 12.50328125 16 13 C15.01 13.495 15.01 13.495 14 14 C11.96166576 12.7260411 9.96147874 11.38938077 8 10 C8 9.34 8 8.68 8 8 C7.4225 7.938125 6.845 7.87625 6.25 7.8125 C3.07551517 6.66615826 1.87151425 4.74043158 0 2 C0 1.34 0 0.68 0 0 Z " fill="#188CCD" transform="translate(520,727)"/>
<path d="M0 0 C3.16305105 2.65810615 4.54145622 5.85097893 6.25 9.5625 C6.79140625 10.71878906 7.3328125 11.87507812 7.890625 13.06640625 C8.25671875 14.03449219 8.6228125 15.00257813 9 16 C8.67 16.66 8.34 17.32 8 18 C4.88067839 16.4403392 4.30874051 13.80086406 2.875 10.6875 C2.33617187 9.53636719 1.79734375 8.38523437 1.2421875 7.19921875 C0 4 0 4 0 0 Z " fill="#B6EEFC" transform="translate(207,651)"/>
<path d="M0 0 C2.11434065 3.17151097 3.01955937 5.86432861 4.125 9.5 C4.47820312 10.6446875 4.83140625 11.789375 5.1953125 12.96875 C6 16 6 16 6 19 C5.34 19 4.68 19 4 19 C4 17.35 4 15.7 4 14 C3.01 14 2.02 14 1 14 C-0.04976964 10.85069107 -0.10131595 8.61185544 -0.0625 5.3125 C-0.05347656 4.31863281 -0.04445312 3.32476563 -0.03515625 2.30078125 C-0.02355469 1.54152344 -0.01195312 0.78226563 0 0 Z " fill="#BCEFFB" transform="translate(190,604)"/>
<path d="M0 0 C0.66 0 1.32 0 2 0 C2 0.99 2 1.98 2 3 C2.66 3 3.32 3 4 3 C5.03572896 4.74122549 6.0531252 6.49336595 7.0625 8.25 C7.63097656 9.22453125 8.19945312 10.1990625 8.78515625 11.203125 C10.11976196 14.27572208 9.96032821 14.95658596 9 18 C7.49480613 15.37785672 5.99568681 12.75255792 4.5 10.125 C3.85611328 9.00544922 3.85611328 9.00544922 3.19921875 7.86328125 C2.79316406 7.14785156 2.38710937 6.43242188 1.96875 5.6953125 C1.59169922 5.03547363 1.21464844 4.37563477 0.82617188 3.69580078 C0 2 0 2 0 0 Z " fill="#2E9ED8" transform="translate(215,665)"/>
<path d="M0 0 C3.84795579 1.56768569 6.3362065 3.83224557 9 7 C9.8125 10.3125 9.8125 10.3125 10 13 C6.40523299 9.50794062 3.07973809 5.95966325 0 2 C0 1.34 0 0.68 0 0 Z " fill="#11587B" transform="translate(342,553)"/>
<path d="M0 0 C0.66 0.33 1.32 0.66 2 1 C-4.15034169 9.44646925 -4.15034169 9.44646925 -8 13 C-7.28650111 8.0055078 -5.74529827 4.44610428 -1.8125 1.1875 C-1.214375 0.795625 -0.61625 0.40375 0 0 Z " fill="#125E83" transform="translate(769,705)"/>
<path d="M0 0 C5.29315952 1.48870112 9.26907096 5.08601135 13 9 C13.33 9.99 13.66 10.98 14 12 C10.41213553 10.34406255 7.16216412 8.37162309 4 6 C4 5.01 4 4.02 4 3 C2.68 3 1.36 3 0 3 C0 2.01 0 1.02 0 0 Z " fill="#0A7DBD" transform="translate(600,800)"/>
<path d="M0 0 C0.66 0.33 1.32 0.66 2 1 C-1.84919283 5.33034194 -5.72289646 7.6560756 -11 10 C-11.66 9.34 -12.32 8.68 -13 8 C-12.14535156 7.50628906 -11.29070313 7.01257813 -10.41015625 6.50390625 C-9.30542969 5.86324219 -8.20070313 5.22257813 -7.0625 4.5625 C-5.96035156 3.92441406 -4.85820313 3.28632812 -3.72265625 2.62890625 C-1.1716429 1.25289773 -1.1716429 1.25289773 0 0 Z " fill="#CFF0F6" transform="translate(681,790)"/>
<path d="M0 0 C0.66 0 1.32 0 2 0 C1.72087372 3.43859819 1.34760044 4.6928044 -1.28515625 7.01953125 C-2.20167969 7.61121094 -3.11820313 8.20289063 -4.0625 8.8125 C-4.98160156 9.41707031 -5.90070312 10.02164063 -6.84765625 10.64453125 C-7.55792969 11.09183594 -8.26820313 11.53914062 -9 12 C-9.66 11.67 -10.32 11.34 -11 11 C-10.54109375 10.62488281 -10.0821875 10.24976563 -9.609375 9.86328125 C-5.94672943 6.80851173 -2.97461868 3.74581612 0 0 Z " fill="#19526D" transform="translate(546,666)"/>
<path d="M0 0 C6.75007312 2.31431078 10.67528523 6.56321571 15 12 C14.67 12.66 14.34 13.32 14 14 C8.8023806 9.76937956 3.88476156 5.52045063 0 0 Z " fill="#1F97D8" transform="translate(564,378)"/>
<path d="M0 0 C0.99 0.66 1.98 1.32 3 2 C0.36 4.97 -2.28 7.94 -5 11 C-5.99 10.67 -6.98 10.34 -8 10 C-5.36 6.7 -2.72 3.4 0 0 Z " fill="#CBEBF4" transform="translate(769,708)"/>
<path d="M0 0 C0.66 0 1.32 0 2 0 C2.66 1.65 3.32 3.3 4 5 C4.99 4.67 5.98 4.34 7 4 C7.99 7.3 8.98 10.6 10 14 C6.07511907 10.29939798 2.97784457 6.5093075 0 2 C0 1.34 0 0.68 0 0 Z " fill="#2094D6" transform="translate(235,698)"/>
<path d="M0 0 C0.33 0 0.66 0 1 0 C1.22644569 3.24900334 1.42797517 6.49909039 1.625 9.75 C1.68945312 10.67039062 1.75390625 11.59078125 1.8203125 12.5390625 C1.871875 13.42851563 1.9234375 14.31796875 1.9765625 15.234375 C2.02893066 16.05131836 2.08129883 16.86826172 2.13525391 17.70996094 C1.98414765 20.26840268 1.28926961 21.80868168 0 24 C-0.66 23.67 -1.32 23.34 -2 23 C-1.84152588 22.4337793 -1.68305176 21.86755859 -1.51977539 21.28417969 C-0.99214152 18.9654655 -0.795844 16.82641603 -0.68359375 14.453125 C-0.64169922 13.60878906 -0.59980469 12.76445313 -0.55664062 11.89453125 C-0.51732422 11.02183594 -0.47800781 10.14914062 -0.4375 9.25 C-0.39431641 8.36183594 -0.35113281 7.47367188 -0.30664062 6.55859375 C-0.20086385 4.37254037 -0.09877454 2.18637911 0 0 Z " fill="#447288" transform="translate(681,512)"/>
<path d="M0 0 C0.33 0.99 0.66 1.98 1 3 C-0.21484375 5.2265625 -0.21484375 5.2265625 -1.9375 7.625 C-4.01826963 10.09302754 -4.01826963 10.09302754 -5 13 C-6.65 13 -8.3 13 -10 13 C-6.73279209 8.61105071 -3.45101522 4.24740335 0 0 Z " fill="#CDEBF5" transform="translate(760,719)"/>
<path d="M0 0 C1 3 1 3 -0.07421875 5.41015625 C-0.60660156 6.28542969 -1.13898437 7.16070313 -1.6875 8.0625 C-2.20699219 8.94035156 -2.72648438 9.81820312 -3.26171875 10.72265625 C-5.04860846 13.06368254 -6.28714049 13.95386463 -9 15 C-7.68944504 12.68637791 -6.3766597 10.37407322 -5.0625 8.0625 C-4.50272461 7.0734668 -4.50272461 7.0734668 -3.93164062 6.06445312 C-1.11328125 1.11328125 -1.11328125 1.11328125 0 0 Z " fill="#CBEEF7" transform="translate(788,679)"/>
<path d="M0 0 C0.66 0.33 1.32 0.66 2 1 C0.90344712 2.31886772 -0.20253423 3.62990057 -1.3125 4.9375 C-1.92738281 5.66839844 -2.54226563 6.39929688 -3.17578125 7.15234375 C-5 9 -5 9 -8 10 C-8 10.66 -8 11.32 -8 12 C-8.66 12 -9.32 12 -10 12 C-8.52278578 8.54798361 -6.56205999 6.35038064 -3.875 3.75 C-3.15054687 3.04359375 -2.42609375 2.3371875 -1.6796875 1.609375 C-1.12539063 1.07828125 -0.57109375 0.5471875 0 0 Z " fill="#DBF8FE" transform="translate(349,478)"/>
<path d="M0 0 C3.3 0.33 6.6 0.66 10 1 C10 1.66 10 2.32 10 3 C11.32 3 12.64 3 14 3 C14 3.99 14 4.98 14 6 C12.41375765 5.57316761 10.8310902 5.13303842 9.25 4.6875 C8.36828125 4.44386719 7.4865625 4.20023438 6.578125 3.94921875 C4 3 4 3 0 0 Z " fill="#2E9AD4" transform="translate(378,816)"/>
<path d="M0 0 C4.84146109 1.46710942 8.55948972 4.3512744 12 8 C12 8.66 12 9.32 12 10 C12.66 10 13.32 10 14 10 C13.67 10.99 13.34 11.98 13 13 C12.56429688 12.55269531 12.12859375 12.10539063 11.6796875 11.64453125 C8.74182818 8.66215891 5.81164172 5.76928956 2.5625 3.125 C1.716875 2.42375 0.87125 1.7225 0 1 C0 0.67 0 0.34 0 0 Z " fill="#2A9BD7" transform="translate(277,749)"/>
<path d="M0 0 C0.99 0.33 1.98 0.66 3 1 C2 4 2 4 0.25 5 C-0.4925 5.33 -1.235 5.66 -2 6 C-3.67334039 6.98879205 -5.34151823 7.98648336 -7 9 C-7 6 -7 6 -5.57421875 4.359375 C-4.95160156 3.82828125 -4.32898438 3.2971875 -3.6875 2.75 C-3.07261719 2.20859375 -2.45773437 1.6671875 -1.82421875 1.109375 C-1.22222656 0.74328125 -0.62023437 0.3771875 0 0 Z " fill="#0B4465" transform="translate(669,552)"/>
<path d="M0 0 C1.1055189 0.93590504 2.20935453 1.87379858 3.3125 2.8125 C3.92738281 3.33457031 4.54226563 3.85664063 5.17578125 4.39453125 C6.85424679 5.87172469 8.43882034 7.40039131 10 9 C7.625 9.1875 7.625 9.1875 5 9 C4.34 8.01 3.68 7.02 3 6 C2.01 5.67 1.02 5.34 0 5 C0 3.35 0 1.7 0 0 Z " fill="#025380" transform="translate(584,398)"/>
<path d="M0 0 C0.66 0.99 1.32 1.98 2 3 C1.00631858 7.57093452 -0.93022144 10.52091763 -4 14 C-3.36843005 8.94744036 -1.86540627 4.70406799 0 0 Z " fill="#BEE8F5" transform="translate(815,620)"/>
<path d="M0 0 C-5.37180176 2.62875405 -10.04492601 3.6083965 -16 4 C-11.33723633 -0.38017194 -6.24970119 -2.24989243 0 0 Z " fill="#1D8ECC" transform="translate(600,828)"/>
<path d="M0 0 C2.12966005 2.12966005 2.47624662 3.04068204 3.1875 5.875 C3.36667969 6.55304687 3.54585937 7.23109375 3.73046875 7.9296875 C4.02970718 10.22818556 3.69377386 11.80550964 3 14 C-0.2102122 10.7897878 0.01025241 7.62539686 -0.0625 3.1875 C-0.041875 2.135625 -0.02125 1.08375 0 0 Z " fill="#BCEEFD" transform="translate(186,590)"/>
<path d="M0 0 C-1.55851755 0.82011312 -3.12201716 1.63076213 -4.6875 2.4375 C-5.55761719 2.88996094 -6.42773438 3.34242188 -7.32421875 3.80859375 C-9.90998264 4.95991928 -12.21356528 5.56320753 -15 6 C-12.87748883 3.69895986 -10.84451444 2.18105541 -8.0625 0.75 C-7.39347656 0.39421875 -6.72445313 0.0384375 -6.03515625 -0.328125 C-3.61730731 -1.12634 -2.36988243 -0.82707306 0 0 Z " fill="#C8F3FD" transform="translate(366,472)"/>
<path d="M0 0 C0.99 0.33 1.98 0.66 3 1 C-0.96 3.97 -4.92 6.94 -9 10 C-9.33 9.01 -9.66 8.02 -10 7 C-8.68 6.67 -7.36 6.34 -6 6 C-6 5.34 -6 4.68 -6 4 C-5.01 4 -4.02 4 -3 4 C-3 3.34 -3 2.68 -3 2 C-2.01 2 -1.02 2 0 2 C0 1.34 0 0.68 0 0 Z " fill="#D0F7FD" transform="translate(313,255)"/>
<path d="M0 0 C4.95 1.65 9.9 3.3 15 5 C12 7 12 7 10 7 C10 6.34 10 5.68 10 5 C8.68 5.33 7.36 5.66 6 6 C6 5.01 6 4.02 6 3 C3.03 2.505 3.03 2.505 0 2 C0 1.34 0 0.68 0 0 Z " fill="#C4F0FB" transform="translate(381,818)"/>
<path d="M0 0 C0.99 0.495 0.99 0.495 2 1 C2 2.32 2 3.64 2 5 C2.66 5 3.32 5 4 5 C5.48320272 8.83887763 6.22419163 11.06204091 5 15 C4.15733289 13.25447527 3.32619962 11.5033792 2.5 9.75 C2.0359375 8.77546875 1.571875 7.8009375 1.09375 6.796875 C0 4 0 4 0 0 Z " fill="#31A0DA" transform="translate(197,623)"/>
<path d="M0 0 C6.15234375 -0.09765625 6.15234375 -0.09765625 8 0 C8.33 0.33 8.66 0.66 9 1 C10.34747084 1.23075082 11.70377565 1.41153063 13.0625 1.5625 C14.361875 1.706875 15.66125 1.85125 17 2 C17 2.33 17 2.66 17 3 C5.47835991 3.3690205 5.47835991 3.3690205 0 1 C0 0.67 0 0.34 0 0 Z " fill="#1991CF" transform="translate(422,831)"/>
<path d="M0 0 C4.23311202 1.96537344 7.92161281 4.45985473 11 8 C11 8.66 11 9.32 11 10 C9.68 9.67 8.36 9.34 7 9 C6.87625 8.071875 6.87625 8.071875 6.75 7.125 C6.20673909 4.83330129 6.20673909 4.83330129 4.0625 3.9375 C3.381875 3.628125 2.70125 3.31875 2 3 C1.34 2.01 0.68 1.02 0 0 Z " fill="#02659C" transform="translate(607,804)"/>
<path d="M0 0 C1.32 0.33 2.64 0.66 4 1 C0.80009492 3.74277578 -2.00499382 5.6302836 -6 7 C-6.33 5.68 -6.66 4.36 -7 3 C-5.5459375 2.814375 -5.5459375 2.814375 -4.0625 2.625 C-2.5465625 2.315625 -2.5465625 2.315625 -1 2 C-0.67 1.34 -0.34 0.68 0 0 Z " fill="#116186" transform="translate(664,797)"/>
<path d="M0 0 C3.23861303 1.44424635 5.61969163 3.25772247 8.25 5.625 C8.95640625 6.25664063 9.6628125 6.88828125 10.390625 7.5390625 C10.92171875 8.02117188 11.4528125 8.50328125 12 9 C9.16032769 9 6.76264289 8.59732819 4 8 C4 6.68 4 5.36 4 4 C3.34 4 2.68 4 2 4 C1.34 2.68 0.68 1.36 0 0 Z " fill="#0E83C6" transform="translate(577,780)"/>
<path d="M0 0 C1.32 0.33 2.64 0.66 4 1 C0.37 3.31 -3.26 5.62 -7 8 C-7 6.35 -7 4.7 -7 3 C-5.5459375 2.5359375 -5.5459375 2.5359375 -4.0625 2.0625 C-1.15934208 1.30476658 -1.15934208 1.30476658 0 0 Z " fill="#35A6E1" transform="translate(353,473)"/>
<path d="M0 0 C0.556875 0.7425 1.11375 1.485 1.6875 2.25 C3.93027178 4.91707995 6.22074975 6.91556232 9 9 C8.67 9.99 8.34 10.98 8 12 C4.7 8.7 1.4 5.4 -2 2 C-1.34 1.34 -0.68 0.68 0 0 Z " fill="#158ED8" transform="translate(795,604)"/>
<path d="M0 0 C3.21079428 1.03204102 4.59940291 2.58748662 6.3125 5.375 C8.03433482 9.07375628 8.20907496 9.45858043 7 13 C5.83072457 11.02237345 4.66464427 9.04285742 3.5 7.0625 C2.8503125 5.96035156 2.200625 4.85820312 1.53125 3.72265625 C0 1 0 1 0 0 Z " fill="#D7FAFE" transform="translate(783,347)"/>
<path d="M0 0 C1.65 1.32 3.3 2.64 5 4 C4.34 6.64 3.68 9.28 3 12 C2.67 12 2.34 12 2 12 C1.34 9.69 0.68 7.38 0 5 C0.66 5 1.32 5 2 5 C1.34 3.35 0.68 1.7 0 0 Z " fill="#0F628B" transform="translate(808,622)"/>
<path d="M0 0 C1.14926266 0.95421808 2.29430541 1.91352045 3.4375 2.875 C4.07558594 3.40867187 4.71367188 3.94234375 5.37109375 4.4921875 C7 6 7 6 8 8 C6.35 8.33 4.7 8.66 3 9 C2 6 1 3 0 0 Z " fill="#045C86" transform="translate(649,462)"/>
<path d="M0 0 C3.09423168 3.09423168 3.93706005 6.5523812 4.125 10.875 C4.08375 11.57625 4.0425 12.2775 4 13 C1.65085508 10.65085508 1.26859643 9.04320554 0.375 5.875 C0.11460937 4.96492188 -0.14578125 4.05484375 -0.4140625 3.1171875 C-0.60742188 2.41851562 -0.80078125 1.71984375 -1 1 C-0.67 0.67 -0.34 0.34 0 0 Z " fill="#C6F1FC" transform="translate(813,405)"/>
<path d="M0 0 C3 1 3 1 4.625 3.125 C6.20938865 6.43781262 6.64339286 9.36260716 7 13 C0 4.25 0 4.25 0 0 Z " fill="#D2F7FE" transform="translate(793,364)"/>
<path d="M0 0 C-0.33 0.99 -0.66 1.98 -1 3 C-2.670625 3.2165625 -2.670625 3.2165625 -4.375 3.4375 C-7.82142047 3.78372035 -7.82142047 3.78372035 -10 5 C-10.66 4.34 -11.32 3.68 -12 3 C-10.75336669 2.49166409 -9.50250613 1.99368855 -8.25 1.5 C-7.55390625 1.2215625 -6.8578125 0.943125 -6.140625 0.65625 C-4 0 -4 0 0 0 Z " fill="#BBEBF9" transform="translate(614,824)"/>
<path d="M0 0 C2.97 0.33 5.94 0.66 9 1 C9.33 2.65 9.66 4.3 10 6 C6.7 4.35 3.4 2.7 0 1 C0 0.67 0 0.34 0 0 Z " fill="#22566E" transform="translate(651,472)"/>
<path d="M0 0 C1.31611677 0.95336021 2.62778961 1.91285774 3.9375 2.875 C4.66839844 3.40867187 5.39929688 3.94234375 6.15234375 4.4921875 C8 6 8 6 9 8 C6.03 7.505 6.03 7.505 3 7 C2.67 5.68 2.34 4.36 2 3 C1.34 3 0.68 3 0 3 C0 2.01 0 1.02 0 0 Z " fill="#44A5DD" transform="translate(706,264)"/>
<path d="M0 0 C1.60495567 0.11442461 3.20898119 0.24194694 4.8125 0.375 C5.70582031 0.44460937 6.59914063 0.51421875 7.51953125 0.5859375 C10 1 10 1 13 3 C13 3.66 13 4.32 13 5 C11.39402675 4.54803755 9.79027492 4.08817673 8.1875 3.625 C6.84751953 3.24214844 6.84751953 3.24214844 5.48046875 2.8515625 C3 2 3 2 0 0 Z " fill="#BEEEFC" transform="translate(615,214)"/>
<path d="M0 0 C1.65 1.32 3.3 2.64 5 4 C4.67 5.65 4.34 7.3 4 9 C0 4.5 0 4.5 0 0 Z " fill="#0C4F6B" transform="translate(673,487)"/>
<path d="M0 0 C0.66 0.33 1.32 0.66 2 1 C-0.31 4.3 -2.62 7.6 -5 11 C-5.33 9.68 -5.66 8.36 -6 7 C-5.01 6.67 -4.02 6.34 -3 6 C-3 5.01 -3 4.02 -3 3 C-2.34 3 -1.68 3 -1 3 C-0.67 2.01 -0.34 1.02 0 0 Z " fill="#CDF9FD" transform="translate(236,333)"/>
<path d="M0 0 C0.99 0.33 1.98 0.66 3 1 C2.67 1.99 2.34 2.98 2 4 C-0.5625 5.1875 -0.5625 5.1875 -3 6 C-2.625 3.5625 -2.625 3.5625 -2 1 C-1.34 0.67 -0.68 0.34 0 0 Z " fill="#166187" transform="translate(672,792)"/>
<path d="M0 0 C0 3 0 3 -1.75 5.25 C-2.86375 6.11625 -2.86375 6.11625 -4 7 C-5.32 6.67 -6.64 6.34 -8 6 C-5.36 4.02 -2.72 2.04 0 0 Z " fill="#CEEDF5" transform="translate(699,778)"/>
<path d="M0 0 C0.66 0.33 1.32 0.66 2 1 C0.9375 3.375 0.9375 3.375 -1 6 C-4.6875 7.3125 -4.6875 7.3125 -8 8 C-5.33333333 5.33333333 -2.66666667 2.66666667 0 0 Z " fill="#C9ECF5" transform="translate(722,759)"/>
<path d="M0 0 C1.65 0 3.3 0 5 0 C5.33 1.32 5.66 2.64 6 4 C6.66 4 7.32 4 8 4 C7.67 4.99 7.34 5.98 7 7 C5.83040013 6.02433888 4.66438823 5.044375 3.5 4.0625 C2.8503125 3.51722656 2.200625 2.97195313 1.53125 2.41015625 C1.0259375 1.94480469 0.520625 1.47945312 0 1 C0 0.67 0 0.34 0 0 Z " fill="#015A8B" transform="translate(548,752)"/>
<path d="M0 0 C0.66 1.32 1.32 2.64 2 4 C0.7260411 6.03833424 -0.61061923 8.03852126 -2 10 C-2.66 10 -3.32 10 -4 10 C-2.8905928 6.51329166 -1.73662334 3.22515763 0 0 Z " fill="#C6E6EF" transform="translate(802,652)"/>
<path d="M0 0 C1.12894876 0.93274109 2.25300876 1.87140122 3.375 2.8125 C4.00148438 3.33457031 4.62796875 3.85664062 5.2734375 4.39453125 C7 6 7 6 9 9 C5.55862568 7.4705003 2.7777867 5.54630448 0 3 C0 2.01 0 1.02 0 0 Z " fill="#01639A" transform="translate(779,592)"/>
<path d="M0 0 C0.66 0 1.32 0 2 0 C0.55049545 3.7910119 -1.15172566 7.3874638 -3 11 C-3.33 11 -3.66 11 -4 11 C-4.20086443 7.28400809 -4.1519437 6.22791555 -2 3 C-1.34 3 -0.68 3 0 3 C0 2.01 0 1.02 0 0 Z " fill="#CEF8FE" transform="translate(217,362)"/>
<path d="M0 0 C0 3 0 3 -1.53125 4.60546875 C-2.1809375 5.12753906 -2.830625 5.64960937 -3.5 6.1875 C-4.1496875 6.71730469 -4.799375 7.24710938 -5.46875 7.79296875 C-5.9740625 8.19128906 -6.479375 8.58960938 -7 9 C-7.33 8.01 -7.66 7.02 -8 6 C-5.36 4.02 -2.72 2.04 0 0 Z " fill="#D0EFF7" transform="translate(708,771)"/>
<path d="M0 0 C2.64 1.98 5.28 3.96 8 6 C6.68 6.33 5.36 6.66 4 7 C1.75 5.25 1.75 5.25 0 3 C0 2.01 0 1.02 0 0 Z " fill="#C7F3FC" transform="translate(298,768)"/>
<path d="M0 0 C1 3 1 3 -0.25 5.625 C-2 8 -2 8 -5 9 C-3.7508258 5.54074837 -2.32472205 2.85306797 0 0 Z " fill="#CAEAF3" transform="translate(775,699)"/>
<path d="M0 0 C3.36591427 2.72478774 4.44226276 6.06856792 6 10 C3 9 3 9 1.3125 6.6875 C0 4 0 4 0 0 Z " fill="#3CA6DE" transform="translate(793,366)"/>
<path d="M0 0 C0.33 0.99 0.66 1.98 1 3 C-0.28524261 3.86380259 -1.57842419 4.71580369 -2.875 5.5625 C-3.59429687 6.03816406 -4.31359375 6.51382812 -5.0546875 7.00390625 C-5.69664062 7.33261719 -6.33859375 7.66132813 -7 8 C-7.66 7.67 -8.32 7.34 -9 7 C-6.03 4.69 -3.06 2.38 0 0 Z " fill="#30A2DA" transform="translate(308,261)"/>
<path d="M0 0 C2.475 0.495 2.475 0.495 5 1 C5.33 1.99 5.66 2.98 6 4 C6.66 4.33 7.32 4.66 8 5 C7.01 5.495 7.01 5.495 6 6 C3.96166576 4.7260411 1.96147874 3.38938077 0 2 C0 1.34 0 0.68 0 0 Z " fill="#2597D7" transform="translate(309,775)"/>
<path d="M0 0 C3.72940389 1.24313463 4.84656811 2.76985216 7 6 C6.67 6.99 6.34 7.98 6 9 C4.99712471 7.68969568 3.99777175 6.37669473 3 5.0625 C2.443125 4.33160156 1.88625 3.60070312 1.3125 2.84765625 C0 1 0 1 0 0 Z " fill="#DAF5FD" transform="translate(336,543)"/>
<path d="M0 0 C3.25 -0.25 3.25 -0.25 7 0 C8.32 1.32 9.64 2.64 11 4 C7.37 3.01 3.74 2.02 0 1 C0 0.67 0 0.34 0 0 Z " fill="#B5EAFA" transform="translate(589,205)"/>
<path d="M0 0 C0.66 0.33 1.32 0.66 2 1 C-2.30769231 4.93846154 -2.30769231 4.93846154 -5.8125 5.25 C-6.534375 5.1675 -7.25625 5.085 -8 5 C-5.45378681 2.99940392 -3.01962385 1.20784954 0 0 Z " fill="#B9E4EE" transform="translate(661,802)"/>
<path d="M0 0 C0.99 0.33 1.98 0.66 3 1 C1.35 2.98 -0.3 4.96 -2 7 C-2.66 6.34 -3.32 5.68 -4 5 C-3.34 5 -2.68 5 -2 5 C-1.34 3.35 -0.68 1.7 0 0 Z " fill="#106085" transform="translate(734,744)"/>
<path d="M0 0 C2.31 1.98 4.62 3.96 7 6 C6.34 6.66 5.68 7.32 5 8 C0 2.25 0 2.25 0 0 Z " fill="#2092D4" transform="translate(382,595)"/>
<path d="M0 0 C2.475 0.495 2.475 0.495 5 1 C5.66 2.98 6.32 4.96 7 7 C5.83040013 6.02433888 4.66438823 5.044375 3.5 4.0625 C2.8503125 3.51722656 2.200625 2.97195313 1.53125 2.41015625 C1.0259375 1.94480469 0.520625 1.47945313 0 1 C0 0.67 0 0.34 0 0 Z " fill="#229ADE" transform="translate(679,492)"/>
<path d="M0 0 C2.46800047 1.15173355 4.04783565 2.04783565 6 4 C5.625 6.125 5.625 6.125 5 8 C0 2.25 0 2.25 0 0 Z " fill="#1B5974" transform="translate(667,482)"/>
<path d="M0 0 C3.45925163 1.2491742 6.14693203 2.67527795 9 5 C8.34 5.66 7.68 6.32 7 7 C5.83040013 6.02433888 4.66438823 5.044375 3.5 4.0625 C2.8503125 3.51722656 2.200625 2.97195313 1.53125 2.41015625 C1.0259375 1.94480469 0.520625 1.47945313 0 1 C0 0.67 0 0.34 0 0 Z " fill="#267DA9" transform="translate(532,353)"/>
<path d="M0 0 C-4.30769231 3.07692308 -4.30769231 3.07692308 -7.8125 2.6875 C-8.534375 2.460625 -9.25625 2.23375 -10 2 C-6.70021068 -0.19985954 -3.76967739 -1.88483869 0 0 Z " fill="#32A4DC" transform="translate(417,208)"/>
<path d="M0 0 C0.66 0.66 1.32 1.32 2 2 C1.625 4.125 1.625 4.125 1 6 C0.01 6 -0.98 6 -2 6 C-1.34 4.02 -0.68 2.04 0 0 Z " fill="#0F4F6C" transform="translate(461,662)"/>
<path d="M0 0 C0.66 0 1.32 0 2 0 C3.06775224 1.96466413 4.06553465 3.96855359 5 6 C4.67 6.66 4.34 7.32 4 8 C1.44971017 6.72485508 1.06918289 5.59658703 0 3 C0 2.01 0 1.02 0 0 Z " fill="#C4F5FE" transform="translate(211,661)"/>
<path d="M0 0 C2 4 2 4 1.3125 6.1875 C0 8 0 8 -3 9 C-2.01 6.03 -1.02 3.06 0 0 Z " fill="#C9EAF1" transform="translate(806,643)"/>
<path d="M0 0 C0.33 0 0.66 0 1 0 C1.36923077 5.41538462 1.36923077 5.41538462 -0.5 8.375 C-0.995 8.91125 -1.49 9.4475 -2 10 C-1.125 2.25 -1.125 2.25 0 0 Z " fill="#1B97DC" transform="translate(827,562)"/>
<path d="M0 0 C0.99 0.495 0.99 0.495 2 1 C2.40729228 3.32156597 2.74438677 5.6568787 3 8 C2.01 7.67 1.02 7.34 0 7 C0 4.69 0 2.38 0 0 Z " fill="#36A5E1" transform="translate(821,438)"/>
</svg>
